<svg xmlns="http://www.w3.org/2000/svg" version="1.1" xmlns:xlink="http://www.w3.org/1999/xlink" xmlns:svgjs="http://svgjs.dev/svgjs" width="2000" height="666" viewBox="0 0 2000 666"><g transform="matrix(1,0,0,1,10.198423004016604,14.96463669805945)"><svg viewBox="0 0 396 132" data-background-color="#ffffff" preserveAspectRatio="xMidYMid meet" height="666" width="2000" xmlns="http://www.w3.org/2000/svg" xmlns:xlink="http://www.w3.org/1999/xlink"><defs></defs><g id="tight-bounds" transform="matrix(1,0,0,1,0.23999649843347015,0.10754276892902226)"><svg viewBox="0 0 395.52 131.78491446214196" height="131.78491446214196" width="395.52"><g><svg viewBox="0 0 603.2520514541741 200.99999999999997" height="131.78491446214196" width="395.52"><g><rect width="5.5557267523225935" height="200.99999999999997" x="214.543787309745" y="0" fill="#332885" opacity="1" stroke-width="0" stroke="transparent" fill-opacity="1" class="rect-o-0" data-fill-palette-color="primary" rx="1%" id="o-0" data-palette-color="#332885"></rect></g><g transform="matrix(1,0,0,1,234.64330137181258,0.4999999999999858)"><svg viewBox="0 0 368.6087500823615 200" height="200" width="368.6087500823615"><g><svg viewBox="0 0 368.6087500823615 200" height="200" width="368.6087500823615"><g><svg viewBox="0 0 368.6087500823615 200" height="200" width="368.6087500823615"><g transform="matrix(1,0,0,1,0,0)"><svg width="368.6087500823615" viewBox="2.859994888305664 -35.54999923706055 218.52999877929688 115.09000396728516" height="200" data-palette-color="#332885"><svg></svg><svg></svg><svg></svg><g class="undefined-text-0" data-fill-palette-color="primary" id="text-0"><path d="M2.86-35.55h9.37l6.72 25.71 6.68-25.71h9.38v35.55h-7.2v-9.62l0.66-14.82-7.11 24.44h-4.88l-7.1-24.44 0.65 14.82v9.62h-7.17zM45.43-35.55l5.38 15.97 5.34-15.97h7.81l-9.52 22.66v12.89h-7.27v-12.89l-9.55-22.66z" data-fill-palette-color="primary" fill="#332885" opacity="1"></path><path d="M14.82 27.02h-4.79v12.5h-7.17v-35.55h12.11c3.513 0 6.317 1.09 8.41 3.27 2.087 2.187 3.13 5.02 3.13 8.5 0 3.487-1.033 6.237-3.1 8.25-2.067 2.02-4.93 3.03-8.59 3.03zM10.03 9.95v11.09h4.94c1.367 0 2.423-0.447 3.17-1.34 0.747-0.9 1.12-2.203 1.12-3.91v0c0-1.773-0.38-3.187-1.14-4.24-0.767-1.047-1.793-1.58-3.08-1.6v0zM49.66 18.35v5.79h-11.18v9.42h13.23v5.96h-20.41v-35.55h20.36v5.98h-13.18v8.4zM71.95 39.52l-5.35-12.99h-3.56v12.99h-7.18v-35.55h11.45c3.6 0 6.38 0.933 8.34 2.8 1.96 1.86 2.94 4.51 2.94 7.95v0c0 4.72-1.717 8.023-5.15 9.91v0l6.22 14.55v0.34zM63.04 9.95v10.6h4.07c1.433 0 2.51-0.477 3.23-1.43 0.713-0.953 1.07-2.227 1.07-3.82v0c0-3.567-1.39-5.35-4.17-5.35v0zM98.54 30.19v0c0-1.447-0.373-2.54-1.12-3.28-0.74-0.74-2.087-1.51-4.04-2.31v0c-3.56-1.347-6.123-2.93-7.69-4.75-1.56-1.813-2.34-3.957-2.34-6.43v0c0-2.993 1.063-5.397 3.19-7.21 2.12-1.82 4.817-2.73 8.09-2.73v0c2.18 0 4.123 0.46 5.83 1.38 1.713 0.92 3.03 2.22 3.95 3.9 0.92 1.673 1.38 3.577 1.38 5.71v0h-7.16c0-1.66-0.353-2.927-1.06-3.8-0.707-0.867-1.727-1.3-3.06-1.3v0c-1.253 0-2.23 0.37-2.93 1.11-0.7 0.74-1.05 1.737-1.05 2.99v0c0 0.98 0.39 1.863 1.17 2.65 0.78 0.787 2.163 1.603 4.15 2.45v0c3.467 1.253 5.987 2.793 7.56 4.62 1.567 1.82 2.35 4.137 2.35 6.95v0c0 3.093-0.983 5.513-2.95 7.26-1.973 1.74-4.65 2.61-8.03 2.61v0c-2.3 0-4.393-0.473-6.28-1.42-1.887-0.94-3.363-2.29-4.43-4.05-1.067-1.76-1.6-3.837-1.6-6.23v0h7.2c0 2.053 0.4 3.543 1.2 4.47 0.8 0.927 2.103 1.39 3.91 1.39v0c2.507 0 3.76-1.327 3.76-3.98zM135.55 18.87v6.07c0 4.773-1.127 8.477-3.38 11.11-2.26 2.64-5.39 3.96-9.39 3.96v0c-3.987 0-7.12-1.307-9.4-3.92-2.28-2.613-3.437-6.27-3.47-10.97v0-6.08c0-4.887 1.133-8.7 3.4-11.44 2.26-2.747 5.4-4.12 9.42-4.12v0c3.953 0 7.07 1.35 9.35 4.05 2.28 2.693 3.437 6.473 3.47 11.34zM128.34 25.16v-6.17c0-3.207-0.453-5.593-1.36-7.16-0.913-1.56-2.33-2.34-4.25-2.34v0c-1.907 0-3.313 0.753-4.22 2.26-0.913 1.507-1.387 3.797-1.42 6.87v0 6.32c0 3.113 0.463 5.407 1.39 6.88 0.927 1.473 2.36 2.21 4.3 2.21v0c1.873 0 3.263-0.72 4.17-2.16 0.913-1.44 1.377-3.677 1.39-6.71zM165.55 3.97v35.55h-7.18l-10.49-23.32v23.32h-7.18v-35.55h7.18l10.52 23.34v-23.34zM190.63 39.52l-1.91-7.28h-9.79l-1.9 7.28h-7.6l11.11-35.55h6.57l11.18 35.55zM183.81 13.59l-3.32 12.67h6.64zM208.79 3.97v29.59h12.6v5.96h-19.78v-35.55z" data-fill-palette-color="primary" fill="#332885" opacity="1"></path><path d="M14.62 79.05h-11.76v-35.55h10.98c3.713 0 6.533 0.827 8.46 2.48 1.933 1.653 2.9 4.073 2.9 7.26v0c0 1.807-0.4 3.363-1.2 4.67-0.8 1.3-1.89 2.25-3.27 2.85v0c1.593 0.46 2.82 1.377 3.68 2.75 0.867 1.373 1.3 3.07 1.3 5.09v0c0 3.453-0.95 6.057-2.85 7.81-1.893 1.76-4.64 2.64-8.24 2.64zM15.09 63.6h-5.06v9.49h4.59c1.287 0 2.263-0.397 2.93-1.19 0.667-0.8 1-1.933 1-3.4v0c0-3.187-1.153-4.82-3.46-4.9zM10.03 49.48v8.89h3.74c2.813 0 4.22-1.457 4.22-4.37v0c0-1.613-0.323-2.77-0.97-3.47-0.653-0.7-1.713-1.05-3.18-1.05v0zM46.85 43.5h7.18v24.61c-0.033 3.693-1.05 6.523-3.05 8.49-2.007 1.96-4.88 2.94-8.62 2.94v0c-3.807 0-6.717-0.993-8.73-2.98-2.007-1.987-3.01-4.86-3.01-8.62v0-24.44h7.22v24.47c0 2.013 0.327 3.453 0.98 4.32 0.647 0.86 1.827 1.29 3.54 1.29 1.707 0 2.877-0.427 3.51-1.28 0.64-0.853 0.967-2.257 0.98-4.21v0zM68.68 79.05h-9.21v-35.55h9.4c4.153 0 7.463 1.32 9.93 3.96 2.467 2.633 3.723 6.247 3.77 10.84v0 5.76c0 4.673-1.233 8.34-3.7 11-2.467 2.66-5.863 3.99-10.19 3.99zM69.26 49.48h-2.61v23.61h2.15c2.393 0 4.077-0.63 5.05-1.89 0.98-1.26 1.493-3.437 1.54-6.53v0-6.18c0-3.32-0.463-5.633-1.39-6.94-0.927-1.313-2.507-2.003-4.74-2.07zM111.89 60.35v14.67c-1.387 1.5-3.083 2.627-5.09 3.38-2.013 0.76-4.213 1.14-6.6 1.14v0c-4.087 0-7.263-1.267-9.53-3.8-2.26-2.527-3.423-6.21-3.49-11.05v0-6.39c0-4.9 1.07-8.673 3.21-11.32 2.14-2.647 5.263-3.97 9.37-3.97v0c3.853 0 6.76 0.953 8.72 2.86 1.967 1.907 3.103 4.893 3.41 8.96v0h-6.98c-0.2-2.26-0.673-3.803-1.42-4.63-0.747-0.82-1.917-1.23-3.51-1.23v0c-1.94 0-3.35 0.71-4.23 2.13-0.88 1.413-1.337 3.667-1.37 6.76v0 6.44c0 3.24 0.487 5.597 1.46 7.07 0.967 1.473 2.557 2.21 4.77 2.21v0c1.413 0 2.56-0.283 3.44-0.85v0l0.64-0.44v-6.52h-5.03v-5.42zM135.33 57.88v5.79h-11.18v9.42h13.23v5.96h-20.41v-35.55h20.36v5.98h-13.18v8.4zM165.01 43.5v5.98h-8.78v29.57h-7.21v-29.57h-8.64v-5.98z" data-fill-palette-color="primary" fill="#332885" opacity="1"></path></g></svg></g></svg></g></svg></g></svg></g><g transform="matrix(1,0,0,1,0,0.4999999999999858)"><svg viewBox="0 0 200 200" height="200" width="200"><g><svg xmlns="http://www.w3.org/2000/svg" viewBox="2 2 60 60" x="0" y="0" height="200" width="200" class="icon-icon-0" data-fill-palette-color="accent" id="icon-0"><g fill="#332885" data-fill-palette-color="accent"><path d="M61 6H58V3a1 1 0 0 0-1-1H40.123A6.26 6.26 0 0 0 35 4.668 6.26 6.26 0 0 0 29.877 2H13a1 1 0 0 0-1 1V6H9A1 1 0 0 0 8 7V24h2V8h2V24h2V4H29.877A4.275 4.275 0 0 1 34 7.13V22h2V7.13A4.275 4.275 0 0 1 40.123 4H48v7a1 1 0 0 0 1 1h7V41H46v2H57a1 1 0 0 0 1-1V8h2l-0.162 36.923L46 45l0.01 2 14.834-0.083a1 1 0 0 0 0.994-1L62 10.628V7A1 1 0 0 0 61 6ZM56 8.586L51.414 4H56ZM50 10V5.414L54.586 10Z" fill="#332885" data-fill-palette-color="accent"></path><rect x="16" y="10" width="16" height="2" fill="#332885" data-fill-palette-color="accent"></rect><rect x="28" y="16" width="4" height="2" fill="#332885" data-fill-palette-color="accent"></rect><rect x="16" y="16" width="10" height="2" fill="#332885" data-fill-palette-color="accent"></rect><rect x="50" y="16" width="4" height="2" fill="#332885" data-fill-palette-color="accent"></rect><rect x="38" y="16" width="10" height="2" fill="#332885" data-fill-palette-color="accent"></rect><rect x="50" y="22" width="4" height="2" fill="#332885" data-fill-palette-color="accent"></rect><rect x="38" y="22" width="10" height="2" fill="#332885" data-fill-palette-color="accent"></rect><rect x="50" y="28" width="4" height="2" fill="#332885" data-fill-palette-color="accent"></rect><rect x="42" y="28" width="6" height="2" fill="#332885" data-fill-palette-color="accent"></rect><rect x="50" y="34" width="4" height="2" fill="#332885" data-fill-palette-color="accent"></rect><rect x="42" y="34" width="6" height="2" fill="#332885" data-fill-palette-color="accent"></rect><rect x="38" y="10" width="8" height="2" fill="#332885" data-fill-palette-color="accent"></rect><path d="M7 62H39a1 1 0 0 0 1-1V53h3a1 1 0 0 0 1-1V42a1 1 0 0 0-1-1H40V27a1 1 0 0 0-1-1H34.249l-0.273-1.219a1 1 0 0 0-1.263-0.739l-4.038 1.211-2.814-4.762a1 1 0 0 0-1.37-0.352L14.572 26H7a5.006 5.006 0 0 0-5 5V57A5.006 5.006 0 0 0 7 62ZM42 51H35a4 4 0 0 1 0-8h7ZM35 41a6 6 0 0 0 0 12h3v7H7a3 3 0 0 1-3-3V35c0.039 0.03 0.084 0.051 0.124 0.079 0.081 0.057 0.167 0.107 0.251 0.16a5.261 5.261 0 0 0 0.528 0.287c0.1 0.044 0.193 0.087 0.293 0.126a4.982 4.982 0 0 0 0.6 0.186c0.094 0.023 0.184 0.052 0.28 0.07A4.964 4.964 0 0 0 7 36H38v5Zm3-13v6H36.044L34.7 28Zm-4.005 6H7a2.946 2.946 0 0 1-0.389-0.039l25.648-7.694ZM24.648 22.37L26.7 25.845 10.584 30.681ZM7 28h4.187L4.221 32.117A2.97 2.97 0 0 1 4 31 3 3 0 0 1 7 28Z" fill="#332885" data-fill-palette-color="accent"></path><circle cx="35" cy="47" r="2.0" fill="#332885" data-fill-palette-color="accent"></circle><path d="M50 62a5.02 5.02 0 0 0 4.59-3.041c0.138 0.011 0.27 0.041 0.41 0.041a5 5 0 1 0-4.593-6.969C50.271 52.018 50.134 52 50 52a5 5 0 0 0 0 10Zm5-11a3 3 0 1 1-0.8 5.88 0.2 0.2 0 0 0-0.02-0.011A3.011 3.011 0 0 1 52.611 55.8v0a2.856 2.856 0 0 1-0.213-0.33c-0.025-0.045-0.051-0.09-0.074-0.137a2.823 2.823 0 0 1-0.128-0.293c-0.031-0.083-0.057-0.169-0.08-0.256s-0.045-0.155-0.06-0.236A2.927 2.927 0 0 1 52 54a3.007 3.007 0 0 1 3-3Zm-5 3a4.81 4.81 0 0 0 0.089 0.876c0.016 0.094 0.037 0.186 0.059 0.278a4.844 4.844 0 0 0 0.181 0.582c0.052 0.141 0.11 0.277 0.175 0.411a4.932 4.932 0 0 0 0.263 0.485c0.082 0.13 0.171 0.253 0.264 0.375 0.066 0.086 0.136 0.168 0.207 0.25a4.994 4.994 0 0 0 1.319 1.078c0.033 0.019 0.063 0.043 0.1 0.061A3 3 0 1 1 50 54Z" fill="#332885" data-fill-palette-color="accent"></path></g></svg></g></svg></g></svg></g></svg><rect width="395.52" height="131.78491446214196" fill="none" stroke="none" visibility="hidden"></rect></g></svg></g></svg>